<svg width="40" height="40" viewBox="0 0 40 40" fill="none" xmlns="http://www.w3.org/2000/svg">
<g clip-path="url(#clip0_1_225)">
<path d="M20 10V12.5858C20 13.4767 21.0771 13.9229 21.7071 13.2929L25.9596 9.04046C26.3501 8.64994 26.3501 8.01677 25.9595 7.62625L21.7071 3.37379C21.0771 2.74383 20 3.19 20 4.0809V6.66669C12.6333 6.66669 6.66666 12.6334 6.66666 20C6.66666 21.8469 7.04861 23.6025 7.73046 25.1964C8.16494 26.2121 9.47524 26.3581 10.2564 25.577V25.577C10.7963 25.037 10.9018 24.2111 10.6319 23.4968C10.2214 22.4099 9.99999 21.2271 9.99999 20C9.99999 14.4834 14.4833 10 20 10ZM32.2742 14.8146C31.8383 13.7929 30.5206 13.6461 29.7351 14.4316V14.4316C29.1986 14.9681 29.0875 15.7862 29.3554 16.496C29.7677 17.5886 30 18.7675 30 20C30 25.5167 25.5167 30 20 30V27.4142C20 26.5233 18.9228 26.0772 18.2929 26.7071L14.0404 30.9596C13.6499 31.3501 13.6499 31.9833 14.0404 32.3738L18.2929 36.6262C18.9228 37.2562 20 36.81 20 35.9191V33.3334C27.3667 33.3334 33.3333 27.3667 33.3333 20C33.3333 18.1574 32.9531 16.4056 32.2742 14.8146Z" fill="black" fill-opacity="0.2"/>
</g>
<defs>
<clipPath id="clip0_1_225">
<rect width="40" height="40" fill="white"/>
</clipPath>
</defs>
</svg>
