<svg width="40" height="40" viewBox="0 0 40 40" fill="none" xmlns="http://www.w3.org/2000/svg">
<g clip-path="url(#clip0_1_258)">
<path d="M30.4917 11.8583C31.1406 11.2094 31.1406 10.1573 30.4917 9.50834V9.50834C29.8427 8.85941 28.7906 8.85941 28.1417 9.50834L20 17.65L11.8583 9.50834C11.2094 8.85941 10.1573 8.85941 9.50834 9.50834V9.50834C8.85941 10.1573 8.85941 11.2094 9.50834 11.8583L17.65 20L9.50834 28.1417C8.85941 28.7906 8.85941 29.8427 9.50834 30.4917V30.4917C10.1573 31.1406 11.2094 31.1406 11.8583 30.4917L20 22.35L28.1417 30.4917C28.7906 31.1406 29.8427 31.1406 30.4917 30.4917V30.4917C31.1406 29.8427 31.1406 28.7906 30.4917 28.1417L22.35 20L30.4917 11.8583Z" fill="black" fill-opacity="0.2"/>
</g>
<defs>
<clipPath id="clip0_1_258">
<rect width="40" height="40" fill="white"/>
</clipPath>
</defs>
</svg>
