<svg width="40" height="40" viewBox="0 0 40 40" fill="none" xmlns="http://www.w3.org/2000/svg">
<g clip-path="url(#clip0_1_235)">
<path d="M5 20C5 20.9205 5.74619 21.6667 6.66667 21.6667V21.6667C7.58714 21.6667 8.33333 20.9205 8.33333 20V20C8.33333 19.0795 7.58714 18.3333 6.66667 18.3333V18.3333C5.74619 18.3333 5 19.0795 5 20V20ZM5 26.6667C5 27.5871 5.74619 28.3333 6.66667 28.3333V28.3333C7.58714 28.3333 8.33333 27.5871 8.33333 26.6667V26.6667C8.33333 25.7462 7.58714 25 6.66667 25V25C5.74619 25 5 25.7462 5 26.6667V26.6667ZM5 13.3333C5 14.2538 5.74619 15 6.66667 15V15C7.58714 15 8.33333 14.2538 8.33333 13.3333V13.3333C8.33333 12.4128 7.58714 11.6667 6.66667 11.6667V11.6667C5.74619 11.6667 5 12.4128 5 13.3333V13.3333ZM11.6667 20C11.6667 20.9205 12.4129 21.6667 13.3333 21.6667H33.3333C34.2538 21.6667 35 20.9205 35 20V20C35 19.0795 34.2538 18.3333 33.3333 18.3333H13.3333C12.4129 18.3333 11.6667 19.0795 11.6667 20V20ZM11.6667 26.6667C11.6667 27.5871 12.4129 28.3333 13.3333 28.3333H33.3333C34.2538 28.3333 35 27.5871 35 26.6667V26.6667C35 25.7462 34.2538 25 33.3333 25H13.3333C12.4129 25 11.6667 25.7462 11.6667 26.6667V26.6667ZM13.3333 11.6667C12.4129 11.6667 11.6667 12.4128 11.6667 13.3333V13.3333C11.6667 14.2538 12.4129 15 13.3333 15H33.3333C34.2538 15 35 14.2538 35 13.3333V13.3333C35 12.4128 34.2538 11.6667 33.3333 11.6667H13.3333Z" fill="black" fill-opacity="0.2"/>
</g>
<defs>
<clipPath id="clip0_1_235">
<rect width="40" height="40" fill="white"/>
</clipPath>
</defs>
</svg>
