<svg width="178" height="178" viewBox="0 0 178 178" fill="none" xmlns="http://www.w3.org/2000/svg">
<g clip-path="url(#clip0_1_6)">
<rect x="0.5" y="0.43573" width="177" height="177" rx="20" fill="white"/>
<rect x="0.5" y="0.43573" width="177" height="177" rx="20" fill="#497CFF"/>
<path d="M99.2053 98.3575C97.6591 100.065 97.4372 104.088 99.0172 105.874C101.08 108.205 105.105 108.041 107.859 107.678C112.375 107.083 114.911 104.852 117.441 101.16C117.933 100.444 118.473 99.1213 118.527 98.2408C118.544 97.9633 118.455 95.831 118.6 95.9323C119.763 96.748 120.843 98.2243 121.954 99.1924C123.326 100.388 125.019 100.983 126.834 101.178C130.433 101.564 134.869 101.649 137.949 99.5054C140.425 97.7815 143.582 91.9926 139.198 90.7686" stroke="#371717" stroke-width="3" stroke-linecap="round"/>
<path d="M126.649 137.732C130.185 139.109 133.872 140.106 137.334 141.646L142.333 147.025C143.192 149.915 141.847 147.62 143.306 150.297C146.587 156.32 149.042 162.471 146.965 169.645C143.829 180.475 135.046 188.263 126.142 195.854C121.267 200.009 116.883 203.611 110.494 205.51L104.798 207.204C103.306 207.647 102.274 207.173 100.882 206.7C99.5392 206.243 98.3121 205.041 97.0373 204.413C93.0968 202.473 89.4598 199.911 85.978 197.391C56.8829 176.331 28.267 153.954 11.3031 123.135C4.97483 111.637 -0.282488 97.3142 2.80554 83.8162C3.60308 80.3301 4.95059 76.7967 6.65657 73.5425C8.21742 70.5651 10.3757 68.8172 12.7952 66.3885C15.1979 63.9767 18.6727 59.8555 22.1719 58.689C24.2388 58.0001 27.7753 56.3927 29.9192 56.5945C35.5509 57.1244 40.7567 64.5811 44.3123 67.793C56.6688 78.9549 68.1059 91.3425 79.3814 103.406C84.3897 108.764 90.4246 113.645 96.0724 118.463C100.428 122.178 105.239 125.654 110.033 128.909C115.198 132.417 120.675 135.406 126.649 137.732Z" fill="url(#paint0_linear_1_6)"/>
<path d="M215.589 104.038C217.238 108.675 219.689 113.37 219.797 118.364V197.034L95.9645 218.523C93.9221 206.268 92.0669 194.038 91.0679 181.596C90.3524 172.685 89.3341 163.826 88.5184 154.927C88.2481 151.978 86.9644 147.216 88.4779 144.405C89.289 142.899 90.7872 142.551 88.397 141.755C85.536 140.801 82.7173 139.668 79.8581 138.76C68.8172 135.255 52.9872 126.218 52.9872 112.901C52.9872 108.957 53.2529 105.606 54.2417 101.792C55.3517 97.5109 57.9224 93.8845 59.887 89.9552C62.7214 84.2864 66.734 78.6541 70.5504 73.5655C73.1137 70.1478 72.3191 64.9424 73.2213 60.818C75.3298 51.1795 77.4963 41.7253 81.2341 32.5509C81.964 30.7592 82.3517 29.0972 83.8645 31.1143C84.8518 32.4307 85.8481 33.7312 86.8592 35.0397C89.6114 38.6015 92.6392 41.9597 95.398 45.521C96.3912 46.8032 98.0317 49.4247 99.809 48.6168C101.048 48.0537 102.666 47.7199 103.977 47.3623C108.092 46.24 112.226 45.2302 116.381 44.2462C121.594 43.0115 126.998 42.18 132.305 41.4337C134.874 41.0724 137.35 40.7862 139.954 40.7862C140.757 40.7862 141.955 41.0948 142.503 40.3411C143.025 39.6238 143.205 38.1661 143.697 37.3059C144.524 35.8588 144.997 34.2705 145.68 32.7533C147.17 29.4418 148.926 26.2673 150.415 22.9599C151.559 20.4176 153.417 17.3681 155.412 15.3721C156.98 13.8051 157.582 15.0883 158.974 15.9387C162.329 17.989 165.13 22.0794 167.533 25.1047C171.692 30.3426 176.403 35.2027 180.644 40.4018C189.382 51.1128 195.744 63.1618 202.234 75.3057C205.531 81.4737 208.694 87.6934 211.785 93.9615C213.368 97.1719 214.391 100.67 215.589 104.038Z" fill="#F4E2C8" stroke="#F4E2C8" stroke-width="3" stroke-linecap="round"/>
<path d="M103.612 100.517C106.213 100.517 108.057 98.0251 109.44 96.1466C112.265 92.309 114.594 87.1567 115.793 82.529C116.136 81.207 115.353 79.0104 115.834 80.7282C117.049 85.0691 119.095 88.2256 122.997 90.4811C124.709 91.4711 126.386 92.5281 128.096 93.5162C128.795 93.9203 129.861 93.8973 130.483 94.4065C131.801 95.4845 132.035 96.1149 132.729 97.9677C133.504 100.034 133.734 102.698 133.822 104.888C133.966 108.491 134.52 112.045 134.571 115.652C134.651 121.356 134.935 127.039 134.935 132.75C134.935 135.707 133.586 136.699 130.746 136.15C128.605 135.735 127.138 133.417 126.194 131.658C124.913 129.27 123.397 127.164 122.349 124.636C121.228 121.932 120.753 118.727 120.002 115.895C119.169 112.752 118.37 109.549 117.817 106.345C117.324 103.489 117.023 100.617 116.522 97.7653C116.185 95.85 116.526 93.8106 115.814 91.9581C115.591 91.3784 115.322 90.0497 116.259 90.9869C118.223 92.951 119.643 95.6304 121.075 97.9879C124.642 103.864 126.732 109.367 127.651 116.178C128.012 118.854 128.281 121.522 128.662 124.191C128.822 125.308 129.4 128.453 128.885 125.304C128.186 121.036 126.746 116.924 125.83 112.698C125.082 109.253 123.715 105.818 123.28 102.338" stroke="#371717" stroke-width="7" stroke-linecap="round"/>
<path d="M117.047 114.517V87.9263L131.366 94.0627L135.749 130.881L131.366 136.433L117.047 114.517Z" fill="#371717"/>
<path d="M35.3423 15.8798C44.3761 17.8873 54.2191 16.7868 61.713 23.5994L43.4564 48.9558C42.1261 48.9558 41.1111 47.1762 40.0191 46.4202C38.024 45.039 36.3873 42.3043 35.0887 40.3065C32.389 36.1531 29.7556 32.0892 27.7354 27.5438C26.0078 23.6566 21.8751 18.7967 22.6923 14.3021C22.891 13.209 34.1709 15.6195 35.3423 15.8798Z" fill="#FF3838" stroke="#FF3838" stroke-width="6" stroke-linecap="round"/>
<path d="M30.7789 98.1468C34.0007 87.3662 36.7129 76.4625 41.1469 66.085C45.8751 55.019 51.2906 44.0887 57.1496 33.5724C58.9162 30.4016 61.6804 26.1679 64.2494 23.5989" stroke="#371717" stroke-width="6" stroke-linecap="round"/>
<path d="M94.1436 75.15V80.8499" stroke="#371717" stroke-width="7" stroke-linecap="round"/>
<path d="M142.013 67.0081V72.4732" stroke="#371717" stroke-width="7" stroke-linecap="round"/>
</g>
<defs>
<linearGradient id="paint0_linear_1_6" x1="50.9525" y1="49.8837" x2="98.2954" y2="209.137" gradientUnits="userSpaceOnUse">
<stop offset="0.161458" stop-color="#F4E2C8"/>
<stop offset="1" stop-color="#DDA95D" stop-opacity="0.46"/>
</linearGradient>
<clipPath id="clip0_1_6">
<rect x="0.5" y="0.43573" width="177" height="177" rx="20" fill="white"/>
</clipPath>
</defs>
</svg>
